<svg xmlns="http://www.w3.org/2000/svg" width="1em" height="1em" viewBox="0 0 24 24">
    <path fill="none" stroke="currentColor" stroke-linecap="round" stroke-linejoin="round" stroke-width="1.5"
        d="M14.854 4H9.146C6.65 4 4.53 5.964 3.753 8.7c-.255.901-.383 1.352-.062 1.826c.32.474.843.474 1.888.474h12.843c1.044 0 1.567 0 1.888-.474s.193-.925-.063-1.826C19.471 5.964 17.35 4 14.854 4M6 15h-.422c-1.044 0-1.567 0-1.887.339c-.321.338-.193.66.062 1.304C4.529 18.597 6.65 20 9.146 20h5.708c2.496 0 4.617-1.403 5.393-3.357c.256-.644.383-.966.062-1.304C19.99 15 19.466 15 18.422 15H14m5 0h1a2 2 0 1 0 0-4h-8m-7 4H4a2 2 0 1 1 0-4h2m0 0l1.481 1.728c.706.824 1.06 1.235 1.519 1.235c.46 0 .813-.411 1.518-1.235L12 11m-6 0h6M9.008 8h-.01M15 7l-1 1"
        color="currentColor" />
</svg>