<svg xmlns="http://www.w3.org/2000/svg" width="1em" height="1em" viewBox="0 0 24 24">
	<g fill="none" stroke="currentColor" stroke-linecap="round" stroke-linejoin="round" stroke-width="1.5" color="currentColor">
		<path d="m7 8.5l2.942 1.74c1.715 1.014 2.4 1.014 4.116 0L17 8.5" />
		<path d="M2.016 13.476c.065 3.065.098 4.598 1.229 5.733c1.131 1.136 2.705 1.175 5.854 1.254c1.94.05 3.862.05 5.802 0c3.149-.079 4.723-.118 5.854-1.254c1.131-1.135 1.164-2.668 1.23-5.733c.02-.986.02-1.966 0-2.952c-.066-3.065-.099-4.598-1.23-5.733c-1.131-1.136-2.705-1.175-5.854-1.254a115 115 0 0 0-5.802 0c-3.149.079-4.723.118-5.854 1.254c-1.131 1.135-1.164 2.668-1.23 5.733a69 69 0 0 0 0 2.952" />
	</g>
</svg>