<svg xmlns="http://www.w3.org/2000/svg" viewBox="0 0 20 20">
    <g fill="currentColor">
        <g opacity="0.2">
            <path
                d="M8.448 2.962c4.505 1.097 8.185 4.22 8.96 8.19c.397 2.036.22 3.995-.889 5.107c-2.225 2.232-6.202 2.82-10.15-1.127c-2.937-2.937-4.904-9.376-2.678-11.608c1.037-1.04 2.82-1.034 4.757-.562" />
            <path fill-rule="evenodd"
                d="M15.4 13.86c.098-.656.064-1.467-.11-2.361c-.623-3.193-3.635-5.83-7.475-6.765c-.838-.204-1.479-.263-1.924-.226c-.4.035-.522.131-.583.193c-.123.123-.343.485-.41 1.256c-.062.737.034 1.658.293 2.668c.528 2.048 1.633 4.099 2.823 5.288c1.73 1.73 3.215 2.222 4.224 2.26c.989.038 1.917-.341 2.664-1.09c.179-.18.396-.551.497-1.223m2.007-2.709c-.774-3.97-4.454-7.092-8.96-8.189c-1.937-.472-3.72-.478-4.756.562c-2.226 2.232-.259 8.67 2.678 11.608c3.948 3.947 7.925 3.359 10.15 1.127c1.11-1.112 1.286-3.07.889-5.108"
                clip-rule="evenodd" />
            <path fill-rule="evenodd"
                d="M12.19 7.46c.586.086.979.56.878 1.06l-.472 2.343l2.283 2.614l1.536 2.048l2.014 3.02c.294.441.114 1.002-.402 1.253c-.517.251-1.173.097-1.467-.343l-1.986-2.98l-1.223-1.63l-3.762-.497c-.587-.078-.99-.547-.899-1.048c.09-.502.64-.845 1.227-.768l1.643.217l-.918-1.05L6.75 8.36c-.419-.36-.418-.94.003-1.299a1.21 1.21 0 0 1 1.52.003l2.48 2.124l.197-.98c.1-.5.656-.835 1.242-.75"
                clip-rule="evenodd" />
        </g>
        <path fill-rule="evenodd"
            d="M2.624 7.954c.567 2.204 1.763 4.474 3.162 5.873c1.913 1.913 3.77 2.665 5.347 2.726c1.571.06 2.966-.564 3.988-1.588c.46-.462.756-1.13.88-1.96c.125-.827.075-1.78-.118-2.767c-.736-3.775-4.25-6.777-8.588-7.833c-1.924-.468-3.392-.391-4.194.413c-.448.45-.724 1.156-.803 2.07c-.077.908.043 1.967.326 3.066m-1.396-3.11c.086-1.012.4-1.947 1.064-2.614c1.272-1.275 3.37-1.186 5.32-.711c4.67 1.137 8.518 4.38 9.33 8.546c.205 1.05.266 2.095.124 3.035c-.14.936-.488 1.803-1.137 2.454a6.482 6.482 0 0 1-4.87 1.918c-1.955-.074-4.06-1.001-6.095-3.036c-1.538-1.538-2.795-3.956-3.389-6.263c-.298-1.157-.435-2.31-.347-3.33"
            clip-rule="evenodd" />
        <path fill-rule="evenodd"
            d="M11.105 6.912c.293.043.49.28.439.53l-.511 2.538l2.41 2.758l1.517 2.024l2.007 3.01c.147.221.057.502-.201.627c-.258.126-.586.049-.733-.172l-1.993-2.99l-1.362-1.815l-4.002-.528c-.293-.039-.494-.274-.449-.524c.045-.25.32-.423.613-.384l2.943.389l-1.727-1.978l-3.92-3.36a.414.414 0 0 1 .001-.65a.605.605 0 0 1 .76.002l3.213 2.754l.374-1.856c.05-.25.328-.418.621-.375"
            clip-rule="evenodd" />
    </g>
</svg>