<svg xmlns="http://www.w3.org/2000/svg" viewBox="0 0 20 20">
    <g fill="currentColor">
        <g opacity="0.2">
            <path fill-rule="evenodd" d="M10.219 10.202a1 1 0 0 1 1 1v6.5a1 1 0 1 1-2 0v-6.5a1 1 0 0 1 1-1"
                clip-rule="evenodd" />
            <path
                d="M8.981 5.756c1.87 1.592 2.49 3.933 1.387 5.228c-1.103 1.296-3.25 1.807-5.692 0C2.495 9.37 1.35 5.544 2.453 4.25c1.104-1.295 4.659-.085 6.528 1.507" />
            <path fill-rule="evenodd"
                d="M8.857 8.994c-.135-.505-.509-1.15-1.173-1.715c-.694-.592-1.78-1.16-2.774-1.428a3.952 3.952 0 0 0-.883-.148c-.002.292.058.704.212 1.187c.33 1.037.961 1.994 1.627 2.487c.921.681 1.611.802 2.028.775c.418-.027.736-.211.952-.464c.006-.008.147-.179.01-.694m-5.118-3.27s.002-.002.008-.003a.047.047 0 0 1-.008.002m6.63 5.26c1.103-1.295.482-3.636-1.388-5.228c-1.87-1.592-5.424-2.802-6.528-1.507c-1.103 1.295.042 5.121 2.223 6.735c2.443 1.807 4.59 1.296 5.692 0"
                clip-rule="evenodd" />
            <path
                d="M12.633 8.065c-1.915 1.198-2.559 3.504-1.876 4.594c.682 1.09 2.537 2.09 4.983.744c2.185-1.203 3.491-4.778 2.808-5.868c-.682-1.09-4-.669-5.915.53" />
            <path fill-rule="evenodd"
                d="M12.6 11.089c.172-.471.537-.98 1.094-1.33c.657-.41 1.661-.735 2.563-.828c.141-.015.269-.022.383-.025a4.99 4.99 0 0 1-.254.722c-.414.95-1.045 1.711-1.61 2.023c-.832.457-1.389.434-1.695.356a1.125 1.125 0 0 1-.587-.352a1.554 1.554 0 0 1 .106-.567m-.1.608l-.001-.003zm4.228-3.408l.002.017a.086.086 0 0 0-.002-.017m.505.668a.103.103 0 0 0 .023.008s-.006-.004-.023-.008m-6.476 3.702c-.683-1.09-.039-3.396 1.876-4.594c1.914-1.199 5.233-1.62 5.915-.53c.683 1.09-.623 4.665-2.808 5.868c-2.447 1.346-4.3.346-4.983-.744"
                clip-rule="evenodd" />
        </g>
        <path fill-rule="evenodd" d="M9.8 10.802a.5.5 0 0 1 .5.5v5.5a.5.5 0 1 1-1 0v-5.5a.5.5 0 0 1 .5-.5"
            clip-rule="evenodd" />
        <path fill-rule="evenodd"
            d="M2.39 6.445c.4 1.25 1.18 2.509 2.165 3.237c1.146.848 2.18 1.122 3.018 1.067A2.83 2.83 0 0 0 9.57 9.76c.415-.487.541-1.212.319-2.05c-.222-.836-.783-1.735-1.65-2.473c-.874-.745-2.163-1.413-3.357-1.735c-.596-.16-1.14-.227-1.582-.19c-.443.038-.724.174-.884.361c-.172.202-.293.553-.305 1.06c-.012.498.083 1.092.28 1.712M1.11 4.71c.015-.625.164-1.238.544-1.684c.392-.46.969-.659 1.561-.71c.595-.05 1.262.043 1.926.222c1.327.357 2.751 1.091 3.746 1.938c1.002.854 1.687 1.922 1.967 2.978c.28 1.054.164 2.148-.524 2.956a3.83 3.83 0 0 1-2.692 1.338c-1.12.073-2.382-.302-3.678-1.26C2.763 9.6 1.882 8.14 1.438 6.748c-.223-.7-.343-1.406-.328-2.04"
            clip-rule="evenodd" />
        <path fill-rule="evenodd"
            d="M17.342 9.327c-.489 1.123-1.301 2.209-2.262 2.738c-2.217 1.22-3.778.29-4.318-.571c-.227-.363-.277-1.034.01-1.82c.28-.765.85-1.549 1.707-2.086c.883-.552 2.115-.937 3.206-1.05c.545-.055 1.027-.04 1.396.04c.382.083.559.217.625.322c.079.126.14.412.084.883c-.054.45-.206.989-.448 1.544m1.44-1.425c.066-.544.034-1.113-.228-1.533c-.276-.44-.77-.661-1.261-.768c-.505-.11-1.1-.12-1.71-.057c-1.218.125-2.602.55-3.634 1.197a5.194 5.194 0 0 0-2.116 2.59c-.343.939-.374 1.966.081 2.693c.826 1.319 2.973 2.389 5.648.917c1.224-.674 2.158-1.977 2.697-3.215c.273-.625.456-1.259.524-1.824"
            clip-rule="evenodd" />
        <path fill-rule="evenodd"
            d="M8.91 10.615a12.108 12.108 0 0 0-2.19-2.123L6 7.952a.5.5 0 1 1 .6-.8l.72.54C8.202 8.355 9 9.127 9.69 9.99a.5.5 0 0 1-.78.625m2.244 1.791a11.918 11.918 0 0 1 2.11-1.68l.801-.5a.5.5 0 1 0-.53-.848l-.8.5a12.916 12.916 0 0 0-2.288 1.82a.5.5 0 0 0 .707.708"
            clip-rule="evenodd" />
    </g>
</svg>