<svg xmlns="http://www.w3.org/2000/svg" width="1em" height="1em" viewBox="0 0 20 20">
    <g fill="currentColor">
        <g opacity="0.2">
            <path d="M18.5 10.5a8 8 0 1 1-16 0a8 8 0 0 1 16 0" />
            <path fill-rule="evenodd" d="M10.5 16.5a6 6 0 1 0 0-12a6 6 0 0 0 0 12m0 2a8 8 0 1 0 0-16a8 8 0 0 0 0 16"
                clip-rule="evenodd" />
        </g>
        <path fill-rule="evenodd"
            d="M9.5 2a7.5 7.5 0 1 0 0 15a7.5 7.5 0 0 0 0-15M1 9.5a8.5 8.5 0 1 1 17 0a8.5 8.5 0 0 1-17 0"
            clip-rule="evenodd" />
        <path fill-rule="evenodd"
            d="M15.873 4.679a.5.5 0 0 1-.184.683c-.614.354-1.446.638-2.403.841a.5.5 0 1 1-.208-.978c.9-.191 1.621-.447 2.112-.73a.5.5 0 0 1 .683.184m-12.534.147a.5.5 0 0 1 .67-.223c1.132.567 3.144.968 5.491.968a.5.5 0 0 1 0 1c-2.424 0-4.612-.41-5.938-1.074a.5.5 0 0 1-.223-.671m13.467 3.311a.5.5 0 0 1-.229.67C15.08 9.538 12.382 10 9.367 10c-2.838 0-5.386-.408-6.92-1.062a.5.5 0 1 1 .392-.92C4.196 8.597 6.592 9 9.367 9c2.96 0 5.477-.458 6.77-1.092a.5.5 0 0 1 .67.23m-.001 3.428a.5.5 0 0 1-.229.669c-.775.38-2.099.673-3.555.874a35.51 35.51 0 0 1-4.665.32a.5.5 0 1 1 0-1c1.47 0 3.099-.114 4.529-.31c1.448-.2 2.632-.479 3.251-.782a.5.5 0 0 1 .67.229m-14.623.145a.5.5 0 0 1 .656-.264c.477.203 1.091.388 1.816.541a.5.5 0 1 1-.206.978c-.768-.161-1.448-.363-2.002-.6a.5.5 0 0 1-.264-.655"
            clip-rule="evenodd" />
        <path fill-rule="evenodd"
            d="M6.357 12.286a.929.929 0 1 0 0 1.857a.929.929 0 0 0 0-1.857m-1.928.928a1.929 1.929 0 1 1 3.857 0a1.929 1.929 0 0 1-3.857 0"
            clip-rule="evenodd" />
    </g>
</svg>