<svg xmlns="http://www.w3.org/2000/svg" viewBox="147.989 136.878 301.101 76.12">
  <g data-name="logo flat">
    <path fill="currentColor"
      d="M293.58 181.46c4.05-.89 8.09-1.85 12.19-2.88v-36.41h-16.05v1.18h3.87v38.1Zm59.22-3.38c3.76 1.87 7.87 3.59 12.19 5.13v-23.09h-16.05v1.18h3.87v16.78Zm20.9 7.94c4.01 1.16 8.1 2.16 12.19 3v-16.97c0-2.62.53-4.85 1.61-6.68 1.07-1.83 2.3-2.75 3.7-2.75.92 0 1.55.38 1.9 1.15.35.77.52 2.46.52 5.08v21.29h-1.69c3.05.5 6.07.9 9 1.18s8.54 0 8.54 0v-1.18h-3.67v-19.72c0-7.29-3.39-10.94-10.16-10.94-2.93 0-5.11.61-6.55 1.83s-2.51 2.84-3.21 4.85v-6.03h-15.79v1.18h3.6v24.72Zm-14.87-30.41c2.31 0 4.02-.57 5.11-1.7 1.09-1.14 1.64-2.65 1.64-4.55s-.57-3.36-1.7-4.39c-1.14-1.03-2.79-1.54-4.98-1.54s-3.81.57-4.88 1.7c-1.07 1.14-1.61 2.58-1.61 4.32s.49 3.21 1.47 4.39c.98 1.18 2.63 1.77 4.95 1.77Zm-34.85 18.08c.02-4.45.28-7.61.78-9.44.52-1.92 1.51-2.88 2.95-2.88s2.53.65 3.28 1.96c.74 1.31 1.11 2.9 1.11 4.78v3.24c2.34-.68 4.73-1.38 7.19-2.1 1.47 1.34 3.15 2.64 5 3.9v-30.98h-16.38v1.18h4v19.33c-1.22-2.14-3.76-3.21-7.6-3.21-8.65 0-12.97 5.44-12.97 16.31 0 .47.02.91.03 1.36 4.09-1.08 8.27-2.22 12.62-3.45ZM428.8 184.5h-6.68c-2.8 0-4.19-.3-4.19-.92s.96-1.53 2.88-2.75c1.83.35 3.6.53 5.31.53 4.11 0 7.36-.96 9.76-2.88s3.6-4.62 3.6-8.09-1.66-6.32-4.98-8.55c-.31-1.48-.46-2.79-.46-3.93 0-2.88.94-4.32 2.82-4.32 1.31 0 1.83.68 1.57 2.03l-1.83 1.11c.04 1.09.43 1.93 1.15 2.52.72.59 1.64.88 2.75.88s2.06-.36 2.85-1.08 1.18-1.82 1.18-3.31-.49-2.65-1.47-3.51c-.98-.85-2.28-1.28-3.9-1.28s-3.08.55-4.39 1.64-1.97 2.86-1.97 5.31c0 .96.13 2.03.39 3.21-2.01-1.09-4.43-1.64-7.27-1.64-4.72 0-8.25 1.01-10.61 3.01-2.36 2.01-3.54 4.65-3.54 7.93 0 5.2 2.53 8.52 7.6 9.96-2.8 1.71-4.74 3.13-5.83 4.29-1.09 1.16-1.64 2.6-1.64 4.32s.76 3.18 2.29 4.36c1.53 1.18 4.06 1.77 7.6 1.77h6.36c3.32 0 5.54.32 6.65.95 1.11.63 1.67 1.89 1.67 3.77s-.92 3.45-2.75 4.72c-1.83 1.27-4.46 1.9-7.86 1.9-5.59 0-8.39-1.88-8.39-5.63 0-1.14.17-2.34.52-3.6l-3.93-1.77c-3.36.96-5.04 2.71-5.04 5.24 0 4.67 5.39 7.01 16.18 7.01 6.33 0 11-1.12 13.99-3.37s4.49-5.3 4.49-9.14c0-7.12-4.96-10.68-14.87-10.68Zm-6.09-15.53c0-3.32.26-5.54.79-6.65.52-1.11 1.3-1.67 2.33-1.67s1.76.54 2.2 1.61c.44 1.07.66 3.31.66 6.71v3.21c0 3.19-.23 5.3-.69 6.32-.46 1.03-1.2 1.54-2.23 1.54s-1.79-.53-2.29-1.57c-.5-1.05-.75-3.04-.75-5.96v-3.54Zm-209.78 22.3v-1.14h-2.82v-18.08c0-2.62.53-4.85 1.61-6.68 1.07-1.83 2.3-2.75 3.7-2.75.92 0 1.55.38 1.9 1.15.35.77.52 2.46.52 5.08v21.29h-2.69v1.02c5.48-.31 10.66-.65 15.58-1.02h-.71v-19.72c0-7.29-3.39-10.94-10.16-10.94-2.93 0-5.11.61-6.55 1.83s-2.51 2.84-3.21 4.85v-6.03h-15.79v1.18h3.6v28.83h-3.6v1.18h17.92c.23-.01.46-.02.69-.04Zm43.3-15.52c0 4.91 1.25 8.74 3.73 11.5 3.12-.4 6.15-.82 9.12-1.26-.18-1.39-.27-3.95-.27-7.72v-5.11c0-4.02.2-7.01.59-8.98.26-1.27.69-2.17 1.28-2.72.59-.54 1.36-.82 2.33-.82 1.66 0 2.72.97 3.18 2.91.46 1.95.69 5.04.69 9.27v5.57c0 2.63-.06 4.74-.17 6.36 3.98-.68 7.87-1.42 11.71-2.21.69-2.09 1.04-4.52 1.04-7.3 0-5.33-1.33-9.29-4-11.89-2.66-2.6-6.71-3.9-12.12-3.9s-9.62 1.41-12.61 4.23c-2.99 2.82-4.49 6.84-4.49 12.05Z" />
    <path fill="currentColor"
      d="M238.15 189.54c4.24-.36 8.29-.75 12.19-1.16v-27.07h8.65v-1.18h-8.65v-10.48c0-2.75.26-4.75.79-5.99.52-1.24 1.62-1.87 3.28-1.87 2.23 0 2.9 1.49 2.03 4.46h-2.49c-.26 1.05-.39 2.13-.39 3.24s.45 2.1 1.34 2.95c.9.85 2.17 1.28 3.83 1.28s2.99-.48 4-1.44c1-.96 1.51-2.4 1.51-4.32s-.81-3.61-2.42-5.08c-1.62-1.46-4.28-2.19-7.99-2.19-5.63 0-9.65 1.63-12.05 4.88-2.4 3.25-3.6 8.03-3.6 14.31v.26h-3.8v1.18h3.8v28.24Zm-43.7-44.09h-9.57v1.25h4.26v29.61c0 4.54-.96 7.93-2.88 10.15-1.92 2.23-4.67 3.34-8.25 3.34s-6.06-1.07-7.44-3.21c-1.38-2.14-2.06-5.22-2.06-9.24v-30.66h4.26v-1.25h-20.64v1.25h3.6v28.43c0 6.16 1.61 10.5 4.82 13.04 3.21 2.53 7.86 3.8 13.96 3.8s10.34-1.33 12.74-4c2.4-2.66 3.6-6.71 3.6-12.12v-29.15h3.6v-1.25Z" />
  </g>
</svg>