<svg xmlns="http://www.w3.org/2000/svg" width="1em" height="1em" viewBox="0 0 24 24">
	<g fill="none" stroke="currentColor" stroke-linecap="round" stroke-linejoin="round" stroke-width="1.5" color="currentColor">
		<path d="M10.5 8h8m-8 4H13m5.5 0H16m-5.5 4H13m5.5 0H16M7 7.5H6c-1.886 0-2.828 0-3.414.586S2 9.614 2 11.5V18a2.5 2.5 0 0 0 5 0z" />
		<path d="M16 3.5h-5c-.93 0-1.395 0-1.776.102a3 3 0 0 0-2.122 2.122C7 6.105 7 6.57 7 7.5V18a2.5 2.5 0 0 1-2.5 2.5H16c2.828 0 4.243 0 5.121-.879C22 18.743 22 17.328 22 14.5v-5c0-2.828 0-4.243-.879-5.121C20.243 3.5 18.828 3.5 16 3.5" />
	</g>
</svg>