<svg xmlns="http://www.w3.org/2000/svg" width="1em" height="1em" viewBox="0 0 24 24">
	<g fill="none" stroke="currentColor" stroke-linecap="round" stroke-linejoin="round" stroke-width="1.5" color="currentColor">
		<path d="M5 9c0-3.3 0-4.95 1.025-5.975S8.7 2 12 2s4.95 0 5.975 1.025S19 5.7 19 9v6c0 3.3 0 4.95-1.025 5.975S15.3 22 12 22s-4.95 0-5.975-1.025S5 18.3 5 15zm6 10h2" />
		<path d="m9 2l.089.534c.193 1.157.29 1.736.686 2.088C10.19 4.989 10.776 5 12 5s1.81-.01 2.225-.378c.397-.352.493-.93.686-2.088L15 2" />
	</g>
</svg>