<svg xmlns="http://www.w3.org/2000/svg" viewBox="0 0 20 20">
    <g fill="currentColor">
        <g opacity="0.2">
            <path fill-rule="evenodd"
                d="M14.09 7.486a1 1 0 0 1-.343 1.371l-2.014 1.21V19a1 1 0 1 1-2 0v-6.434l-2.015-1.209a1 1 0 0 1 1.03-1.714l.985.59V6a1 1 0 0 1 2 0v1.734l.985-.591a1 1 0 0 1 1.372.343"
                clip-rule="evenodd" />
            <path fill-rule="evenodd"
                d="M10.633 1.5c-.782 0-1.5.313-2.054.839c-.31.295-.568.657-.753 1.066a.5.5 0 0 1-.637.261c-1.636-.123-3.137 1.173-3.321 3.031c-.126 1.27.406 2.44 1.28 3.128a.5.5 0 0 1 .183.299a.498.498 0 0 1 .027.325c-.09.355-.123.737-.089 1.132c.14 1.604 1.67 2.727 3.052 2.587c.531-.054.904-.142 1.185-.304c.252-.146.468-.374.643-.79a.5.5 0 0 1 .672-.338a.5.5 0 0 1 .3.338c.175.416.39.644.643.79c.28.162.653.25 1.185.304c1.38.14 2.911-.983 3.051-2.587a3.4 3.4 0 0 0-.089-1.131a.498.498 0 0 1 .028-.327a.498.498 0 0 1 .182-.298c.875-.688 1.407-1.858 1.28-3.128c-.184-1.86-1.688-3.157-3.326-3.03a.5.5 0 0 1-.635-.262a3.402 3.402 0 0 0-.754-1.066a2.969 2.969 0 0 0-2.053-.839m3.55 1.16a4.373 4.373 0 0 0-.808-1.046l-.344.362l.344-.362A3.969 3.969 0 0 0 10.633.5A3.968 3.968 0 0 0 7.89 1.614a4.36 4.36 0 0 0-.808 1.045c-2.159-.064-3.984 1.67-4.21 3.94c-.149 1.51.436 2.934 1.463 3.848a4.375 4.375 0 0 0-.062 1.22c.19 2.181 2.234 3.69 4.148 3.496c.571-.058 1.117-.163 1.586-.434c.24-.139.448-.314.628-.531c.18.217.388.392.628.531c.469.271 1.014.376 1.585.434c1.914.194 3.958-1.315 4.149-3.495c.036-.42.013-.83-.062-1.22c1.027-.915 1.612-2.339 1.462-3.85c-.225-2.271-2.053-4.005-4.214-3.939"
                clip-rule="evenodd" />
            <path d="M14.233 5c0 2.21-1.568 4-3.5 4c-1.933 0-3.5-1.79-3.5-4s1.567-4 3.5-4c1.932 0 3.5 1.79 3.5 4" />
            <path d="M11.733 11c0 2.21-1.568 4-3.5 4c-1.933 0-3.5-1.79-3.5-4s1.567-4 3.5-4c1.932 0 3.5 1.79 3.5 4" />
            <path d="M16.733 11c0 2.21-1.568 4-3.5 4c-1.934 0-3.5-1.79-3.5-4s1.566-4 3.5-4c1.932 0 3.5 1.79 3.5 4" />
            <path
                d="M17.733 7c0 2.21-1.567 4-3.5 4c-1.934 0-3.5-1.79-3.5-4s1.566-4 3.5-4c1.933 0 3.5 1.79 3.5 4m-7 0c0 2.21-1.567 4-3.5 4s-3.5-1.79-3.5-4s1.567-4 3.5-4s3.5 1.79 3.5 4" />
        </g>
        <path fill-rule="evenodd"
            d="M9.36 1c-.782 0-1.5.313-2.054.839c-.31.295-.568.657-.753 1.066a.5.5 0 0 1-.636.261C4.28 3.043 2.78 4.339 2.595 6.197c-.125 1.27.407 2.44 1.281 3.128c.099.078.16.185.182.299a.498.498 0 0 1 .028.325a3.4 3.4 0 0 0-.09 1.132c.14 1.604 1.671 2.727 3.052 2.587c.533-.054.906-.142 1.187-.305c.251-.146.467-.374.642-.79a.5.5 0 0 1 .672-.336a.5.5 0 0 1 .299.337c.175.415.39.643.642.789c.28.163.654.251 1.186.305c1.381.14 2.912-.983 3.052-2.587a3.4 3.4 0 0 0-.09-1.132a.497.497 0 0 1 .029-.326a.498.498 0 0 1 .181-.298c.875-.688 1.407-1.858 1.281-3.128c-.184-1.86-1.689-3.157-3.327-3.03a.5.5 0 0 1-.635-.262a3.401 3.401 0 0 0-.753-1.066A2.969 2.969 0 0 0 9.36 1m3.55 1.16a4.373 4.373 0 0 0-.807-1.046A3.969 3.969 0 0 0 9.36 0a3.968 3.968 0 0 0-2.743 1.114c-.317.301-.59.654-.807 1.045C3.65 2.095 1.825 3.83 1.6 6.1c-.15 1.51.435 2.934 1.462 3.848a4.414 4.414 0 0 0-.061 1.22c.19 2.181 2.234 3.69 4.148 3.496c.572-.058 1.118-.163 1.587-.435c.24-.139.447-.314.626-.53c.18.216.387.391.626.53c.47.272 1.016.377 1.588.435c1.914.194 3.958-1.315 4.148-3.495a4.37 4.37 0 0 0-.062-1.22c1.027-.915 1.612-2.339 1.462-3.85c-.225-2.271-2.053-4.005-4.214-3.939"
            clip-rule="evenodd" />
        <path fill-rule="evenodd"
            d="M12.389 7.243a.5.5 0 0 1-.172.686L9.96 9.283V18.5a.5.5 0 0 1-1 0v-6.717L6.703 10.43a.5.5 0 1 1 .514-.858l1.743 1.046V5.5a.5.5 0 0 1 1 0v2.617l1.743-1.046a.5.5 0 0 1 .686.172"
            clip-rule="evenodd" />
    </g>
</svg>